<svg width="144" height="57" viewBox="0 0 144 57" fill="none" xmlns="http://www.w3.org/2000/svg">
<g clip-path="url(#clip0_303_457)">
<path d="M19.2457 42.1705C19.265 35.1966 17.2992 31.4455 16.5 31.4455C15.7007 31.4455 13.7543 35.1966 13.7543 42.1576C13.7543 42.7634 13.5029 43.3306 13.0582 43.7302C12.3298 44.3812 11.1826 44.465 10.364 43.9107C6.59996 41.3648 3.3902 36.6791 1.79176 31.3875C0.0901968 25.7543 0.406017 20.2306 2.64254 16.6213C3.94449 14.5201 5.80719 13.2052 8.03082 12.825C9.81617 12.522 11.7304 12.8379 13.6382 13.766C15.4043 14.6232 17.5957 14.6232 19.3681 13.766C21.2695 12.8379 23.1902 12.5156 24.9691 12.825C27.1927 13.2052 29.0554 14.5201 30.3574 16.6213C32.5939 20.2371 32.9097 25.7543 31.2082 31.3875C29.6097 36.6791 26.4064 41.3713 22.6359 43.9107C21.4435 44.7164 19.2392 44.4199 19.2457 42.1705ZM8.47555 15.416C6.99957 15.6996 5.78785 16.5375 4.88551 18.007C3.06149 20.9396 2.84879 25.78 4.31188 30.6269C5.63961 35.0162 8.15973 38.9091 11.1375 41.223C11.2986 35.0677 12.9873 28.8158 16.5 28.8158C20.0127 28.8158 21.7078 35.0806 21.8625 41.223C24.8402 38.9091 27.3603 35.0162 28.688 30.6269C30.1511 25.78 29.9384 20.9396 28.1209 18.007C27.2121 16.5439 26.0068 15.6738 24.5308 15.416C23.2869 15.2033 21.9205 15.4482 20.5154 16.1314C18.0339 17.3302 14.9724 17.3302 12.491 16.1314C11.4082 15.6093 9.50035 15.2162 8.47555 15.416Z" fill="white"/>
</g>
<path d="M66.5586 42.5H55.9141V14.3164H66.5977C69.0065 14.3164 70.9531 14.9609 72.4375 16.25C73.9349 17.5391 74.6836 19.2383 74.6836 21.3477C74.6836 22.819 74.2083 24.1536 73.2578 25.3516C72.3203 26.5365 71.1745 27.2526 69.8203 27.5V27.6562C71.7344 27.9036 73.2578 28.6523 74.3906 29.9023C75.5365 31.1523 76.1094 32.7148 76.1094 34.5898C76.1094 37.0768 75.263 39.0169 73.5703 40.4102C71.8906 41.8034 69.5534 42.5 66.5586 42.5ZM59.4297 17.4219V26.4648H64.7031C66.7865 26.4648 68.375 26.0612 69.4688 25.2539C70.5755 24.4466 71.1289 23.2812 71.1289 21.7578C71.1289 20.3646 70.6667 19.2969 69.7422 18.5547C68.8177 17.7995 67.5026 17.4219 65.7969 17.4219H59.4297ZM59.4297 39.3945H66.0312C68.1536 39.3945 69.7617 38.9714 70.8555 38.125C71.9492 37.2786 72.4961 36.0417 72.4961 34.4141C72.4961 31.1328 70.2305 29.4922 65.6992 29.4922H59.4297V39.3945ZM91.6953 42.9688C87.8021 42.9688 84.7096 41.6602 82.418 39.043C80.1393 36.4128 79 32.8646 79 28.3984C79 23.9714 80.1523 20.4427 82.457 17.8125C84.7617 15.1693 87.8411 13.8477 91.6953 13.8477C94.7682 13.8477 97.3724 14.707 99.5078 16.4258C101.656 18.1315 102.952 20.3906 103.395 23.2031H99.8398C99.3841 21.3542 98.4141 19.8763 96.9297 18.7695C95.4453 17.6497 93.7005 17.0898 91.6953 17.0898C88.9479 17.0898 86.7474 18.1185 85.0938 20.1758C83.4401 22.2331 82.6133 24.974 82.6133 28.3984C82.6133 31.862 83.4336 34.6159 85.0742 36.6602C86.7148 38.7044 88.9284 39.7266 91.7148 39.7266C93.7852 39.7266 95.5299 39.2513 96.9492 38.3008C98.3685 37.3503 99.332 36.0156 99.8398 34.2969H103.395C102.743 37.0833 101.409 39.2253 99.3906 40.7227C97.3724 42.2201 94.8073 42.9688 91.6953 42.9688Z" fill="white"/>
<path d="M55.9141 42.5H54.6641V43.75H55.9141V42.5ZM55.9141 14.3164V13.0664H54.6641V14.3164H55.9141ZM72.4375 16.25L71.6179 17.1938L71.622 17.1973L72.4375 16.25ZM73.2578 25.3516L72.2786 24.5746L72.2775 24.576L73.2578 25.3516ZM69.8203 27.5L69.5957 26.2704L68.5703 26.4577V27.5H69.8203ZM69.8203 27.6562H68.5703V28.7551L69.6601 28.8959L69.8203 27.6562ZM74.3906 29.9023L73.4644 30.7418L73.4692 30.747L74.3906 29.9023ZM73.5703 40.4102L72.7759 39.445L72.7723 39.448L73.5703 40.4102ZM59.4297 17.4219V16.1719H58.1797V17.4219H59.4297ZM59.4297 26.4648H58.1797V27.7148H59.4297V26.4648ZM69.4688 25.2539L68.7321 24.244L68.7264 24.2482L69.4688 25.2539ZM69.7422 18.5547L68.9514 19.5228L68.9596 19.5294L69.7422 18.5547ZM59.4297 39.3945H58.1797V40.6445H59.4297V39.3945ZM70.8555 38.125L70.0905 37.1364L70.8555 38.125ZM59.4297 29.4922V28.2422H58.1797V29.4922H59.4297ZM66.5586 41.25H55.9141V43.75H66.5586V41.25ZM57.1641 42.5V14.3164H54.6641V42.5H57.1641ZM55.9141 15.5664H66.5977V13.0664H55.9141V15.5664ZM66.5977 15.5664C68.776 15.5664 70.4091 16.1441 71.6179 17.1938L73.2571 15.3062C71.4971 13.7778 69.237 13.0664 66.5977 13.0664V15.5664ZM71.622 17.1973C72.823 18.2313 73.4336 19.5743 73.4336 21.3477H75.9336C75.9336 18.9022 75.0467 16.8468 73.253 15.3027L71.622 17.1973ZM73.4336 21.3477C73.4336 22.5251 73.0612 23.5883 72.2786 24.5746L74.237 26.1285C75.3554 24.719 75.9336 23.1129 75.9336 21.3477H73.4336ZM72.2775 24.576C71.5086 25.5478 70.6212 26.083 69.5957 26.2704L70.045 28.7296C71.7278 28.4222 73.132 27.5251 74.2381 26.1272L72.2775 24.576ZM68.5703 27.5V27.6562H71.0703V27.5H68.5703ZM69.6601 28.8959C71.3244 29.1111 72.5597 29.7435 73.4644 30.7417L75.3169 29.0629C73.9559 27.5612 72.1444 26.6962 69.9805 26.4166L69.6601 28.8959ZM73.4692 30.747C74.3807 31.7414 74.8594 32.9918 74.8594 34.5898H77.3594C77.3594 32.4379 76.6922 30.5633 75.3121 29.0577L73.4692 30.747ZM74.8594 34.5898C74.8594 36.7597 74.1392 38.323 72.7759 39.445L74.3647 41.3753C76.3868 39.7109 77.3594 37.394 77.3594 34.5898H74.8594ZM72.7723 39.448C71.388 40.5963 69.37 41.25 66.5586 41.25V43.75C69.7368 43.75 72.3933 43.0105 74.3683 41.3723L72.7723 39.448ZM58.1797 17.4219V26.4648H60.6797V17.4219H58.1797ZM59.4297 27.7148H64.7031V25.2148H59.4297V27.7148ZM64.7031 27.7148C66.9198 27.7148 68.8151 27.29 70.2111 26.2596L68.7264 24.2482C67.9349 24.8324 66.6531 25.2148 64.7031 25.2148V27.7148ZM70.2054 26.2638C71.6744 25.1923 72.3789 23.6288 72.3789 21.7578H69.8789C69.8789 22.9337 69.4766 23.701 68.7321 24.244L70.2054 26.2638ZM72.3789 21.7578C72.3789 20.0598 71.7981 18.6022 70.5247 17.5799L68.9596 19.5294C69.5352 19.9915 69.8789 20.6694 69.8789 21.7578H72.3789ZM70.533 17.5866C69.3068 16.585 67.6698 16.1719 65.7969 16.1719V18.6719C67.3354 18.6719 68.3286 19.014 68.9514 19.5227L70.533 17.5866ZM65.7969 16.1719H59.4297V18.6719H65.7969V16.1719ZM59.4297 40.6445H66.0312V38.1445H59.4297V40.6445ZM66.0312 40.6445C68.2906 40.6445 70.2181 40.1987 71.6204 39.1136L70.0905 37.1364C69.3053 37.744 68.0167 38.1445 66.0312 38.1445V40.6445ZM71.6204 39.1136C73.0762 37.9871 73.7461 36.3515 73.7461 34.4141H71.2461C71.2461 35.7318 70.8222 36.5702 70.0905 37.1364L71.6204 39.1136ZM73.7461 34.4141C73.7461 32.4516 73.0466 30.8084 71.53 29.7102C70.0883 28.6662 68.0784 28.2422 65.6992 28.2422V30.7422C67.8513 30.7422 69.2398 31.1385 70.0637 31.7351C70.8128 32.2775 71.2461 33.0952 71.2461 34.4141H73.7461ZM65.6992 28.2422H59.4297V30.7422H65.6992V28.2422ZM58.1797 29.4922V39.3945H60.6797V29.4922H58.1797ZM82.418 39.043L81.4732 39.8615L81.4775 39.8664L82.418 39.043ZM82.457 17.8125L83.3972 18.6363L83.3992 18.634L82.457 17.8125ZM99.5078 16.4258L98.724 17.3996L98.7306 17.4048L99.5078 16.4258ZM103.395 23.2031V24.4531H104.857L104.629 23.0088L103.395 23.2031ZM99.8398 23.2031L98.6262 23.5023L98.8605 24.4531H99.8398V23.2031ZM96.9297 18.7695L96.1769 19.7674L96.1825 19.7716L96.9297 18.7695ZM85.0742 36.6602L84.0993 37.4425L85.0742 36.6602ZM96.9492 38.3008L96.2536 37.2622L96.9492 38.3008ZM99.8398 34.2969V33.0469H98.9057L98.6411 33.9427L99.8398 34.2969ZM103.395 34.2969L104.612 34.5813L104.97 33.0469H103.395V34.2969ZM91.6953 41.7188C88.1144 41.7188 85.3828 40.5315 83.3584 38.2195L81.4775 39.8664C84.0364 42.7888 87.4898 44.2188 91.6953 44.2188V41.7188ZM83.3627 38.2245C81.3315 35.8798 80.25 32.6513 80.25 28.3984H77.75C77.75 33.0779 78.9472 36.9457 81.4732 39.8615L83.3627 38.2245ZM80.25 28.3984C80.25 24.1913 81.3409 20.9829 83.3972 18.6363L81.5169 16.9887C78.9637 19.9025 77.75 23.7514 77.75 28.3984H80.25ZM83.3992 18.634C85.4413 16.2919 88.1622 15.0977 91.6953 15.0977V12.5977C87.5201 12.5977 84.0822 14.0466 81.5149 16.991L83.3992 18.634ZM91.6953 15.0977C94.5197 15.0977 96.8376 15.8812 98.7241 17.3995L100.292 15.452C97.9072 13.5329 95.0168 12.5977 91.6953 12.5977V15.0977ZM98.7306 17.4048C100.623 18.9076 101.764 20.8817 102.16 23.3975L104.629 23.0088C104.14 19.8995 102.689 17.3554 100.285 15.4468L98.7306 17.4048ZM103.395 21.9531H99.8398V24.4531H103.395V21.9531ZM101.054 22.904C100.531 20.7824 99.4006 19.0527 97.6769 17.7674L96.1825 19.7716C97.4275 20.6999 98.2376 21.9259 98.6262 23.5023L101.054 22.904ZM97.6825 17.7716C95.9638 16.4751 93.9496 15.8398 91.6953 15.8398V18.3398C93.4515 18.3398 94.9268 18.8244 96.1769 19.7674L97.6825 17.7716ZM91.6953 15.8398C88.5871 15.8398 86.0214 17.0265 84.1195 19.3927L86.068 20.9589C87.4734 19.2105 89.3087 18.3398 91.6953 18.3398V15.8398ZM84.1195 19.3927C82.2402 21.7306 81.3633 24.7748 81.3633 28.3984H83.8633C83.8633 25.1731 84.64 22.7355 86.068 20.9589L84.1195 19.3927ZM81.3633 28.3984C81.3633 32.0546 82.2306 35.114 84.0993 37.4425L86.0491 35.8778C84.6366 34.1177 83.8633 31.6693 83.8633 28.3984H81.3633ZM84.0993 37.4425C85.9939 39.8032 88.5768 40.9766 91.7148 40.9766V38.4766C89.2799 38.4766 87.4358 37.6056 86.0491 35.8778L84.0993 37.4425ZM91.7148 40.9766C93.9797 40.9766 95.9796 40.4546 97.6448 39.3394L96.2536 37.2622C95.0803 38.048 93.5906 38.4766 91.7148 38.4766V40.9766ZM97.6448 39.3394C99.3192 38.218 100.453 36.6348 101.039 34.6511L98.6411 33.9427C98.2115 35.3965 97.4178 36.4825 96.2536 37.2622L97.6448 39.3394ZM99.8398 35.5469H103.395V33.0469H99.8398V35.5469ZM102.177 34.0125C101.584 36.5532 100.394 38.4221 98.6458 39.7188L100.135 41.7265C102.424 40.0285 103.903 37.6135 104.612 34.5813L102.177 34.0125ZM98.6458 39.7188C96.8899 41.0215 94.6041 41.7188 91.6953 41.7188V44.2188C95.0105 44.2188 97.8548 43.4186 100.135 41.7265L98.6458 39.7188Z" fill="white"/>
<path d="M114.961 28.6406C113.919 28.6406 113.078 28.2578 112.438 27.4922C111.802 26.7266 111.484 25.7083 111.484 24.4375C111.484 23.1719 111.802 22.1562 112.438 21.3906C113.073 20.6198 113.904 20.2344 114.93 20.2344C115.503 20.2344 116.016 20.3646 116.469 20.625C116.922 20.8854 117.271 21.2422 117.516 21.6953H117.547V17.2266H118.906V28.5H117.609V27.125H117.586C117.32 27.599 116.961 27.9714 116.508 28.2422C116.055 28.5078 115.539 28.6406 114.961 28.6406ZM115.219 21.4297C114.5 21.4297 113.93 21.7031 113.508 22.25C113.086 22.7917 112.875 23.5208 112.875 24.4375C112.875 25.3594 113.086 26.0911 113.508 26.6328C113.93 27.1745 114.5 27.4453 115.219 27.4453C115.922 27.4453 116.487 27.1719 116.914 26.625C117.341 26.0729 117.555 25.3438 117.555 24.4375C117.555 23.5312 117.339 22.8047 116.906 22.2578C116.479 21.7057 115.917 21.4297 115.219 21.4297ZM124 21.4141C123.37 21.4141 122.846 21.6328 122.43 22.0703C122.018 22.5026 121.792 23.0599 121.75 23.7422H126.164C126.148 23.0547 125.943 22.4948 125.547 22.0625C125.151 21.6302 124.635 21.4141 124 21.4141ZM126.133 26.1719H127.469C127.349 26.8906 126.974 27.4818 126.344 27.9453C125.719 28.4089 124.966 28.6406 124.086 28.6406C122.924 28.6406 122.01 28.2656 121.344 27.5156C120.677 26.7656 120.344 25.75 120.344 24.4688C120.344 23.1979 120.677 22.1745 121.344 21.3984C122.016 20.6224 122.909 20.2344 124.023 20.2344C125.117 20.2344 125.982 20.6016 126.617 21.3359C127.253 22.0703 127.57 23.0547 127.57 24.2891V24.8047H121.742V24.8828C121.742 25.6641 121.956 26.2891 122.383 26.7578C122.81 27.2266 123.388 27.4609 124.117 27.4609C124.628 27.4609 125.062 27.3438 125.422 27.1094C125.781 26.875 126.018 26.5625 126.133 26.1719ZM128.945 28.5V20.375H130.227V21.6719H130.258C130.492 21.2188 130.828 20.8672 131.266 20.6172C131.703 20.362 132.227 20.2344 132.836 20.2344C133.721 20.2344 134.411 20.5026 134.906 21.0391C135.401 21.5703 135.648 22.2995 135.648 23.2266V28.5H134.289V23.4688C134.289 22.8073 134.133 22.3047 133.82 21.9609C133.508 21.612 133.042 21.4375 132.422 21.4375C131.781 21.4375 131.268 21.6458 130.883 22.0625C130.497 22.4792 130.305 23.0312 130.305 23.7188V28.5H128.945ZM137.82 18.4141H139.18V20.375H140.758V21.4922H139.18V26.3203C139.18 26.6901 139.26 26.9635 139.422 27.1406C139.583 27.3125 139.839 27.3984 140.188 27.3984C140.406 27.3984 140.594 27.3854 140.75 27.3594V28.5C140.573 28.5417 140.286 28.5625 139.891 28.5625C139.146 28.5625 138.615 28.3958 138.297 28.0625C137.979 27.7292 137.82 27.1719 137.82 26.3906V21.4922H136.609V20.375H137.82V18.4141ZM111.953 40.5V32.375H113.312V40.5H111.953ZM112.633 31.0078C112.404 31.0078 112.206 30.9245 112.039 30.7578C111.872 30.5911 111.789 30.3932 111.789 30.1641C111.789 29.9297 111.872 29.7318 112.039 29.5703C112.206 29.4036 112.404 29.3203 112.633 29.3203C112.867 29.3203 113.068 29.4036 113.234 29.5703C113.401 29.7318 113.484 29.9297 113.484 30.1641C113.484 30.3932 113.401 30.5911 113.234 30.7578C113.068 30.9245 112.867 31.0078 112.633 31.0078ZM115.008 34.6172C115.008 33.9193 115.289 33.349 115.852 32.9062C116.419 32.4583 117.148 32.2344 118.039 32.2344C118.878 32.2344 119.576 32.4583 120.133 32.9062C120.69 33.3542 120.984 33.9219 121.016 34.6094H119.719C119.672 34.2135 119.495 33.9036 119.188 33.6797C118.885 33.4557 118.487 33.3438 117.992 33.3438C117.497 33.3438 117.099 33.4557 116.797 33.6797C116.495 33.8984 116.344 34.1875 116.344 34.5469C116.344 35.099 116.794 35.4896 117.695 35.7188L118.953 36.0234C119.771 36.2318 120.346 36.5026 120.68 36.8359C121.018 37.1641 121.188 37.6276 121.188 38.2266C121.188 38.9349 120.885 39.5156 120.281 39.9688C119.677 40.4167 118.901 40.6406 117.953 40.6406C117.068 40.6406 116.336 40.4219 115.758 39.9844C115.185 39.5417 114.862 38.9583 114.789 38.2344H116.148C116.299 39.099 116.93 39.5312 118.039 39.5312C118.586 39.5312 119.018 39.4245 119.336 39.2109C119.659 38.9922 119.82 38.6979 119.82 38.3281C119.82 38.0365 119.724 37.8047 119.531 37.6328C119.344 37.4609 119.023 37.3151 118.57 37.1953L117.141 36.8281C115.719 36.4635 115.008 35.7266 115.008 34.6172ZM123.039 30.4141H124.398V32.375H125.977V33.4922H124.398V38.3203C124.398 38.6901 124.479 38.9635 124.641 39.1406C124.802 39.3125 125.057 39.3984 125.406 39.3984C125.625 39.3984 125.812 39.3854 125.969 39.3594V40.5C125.792 40.5417 125.505 40.5625 125.109 40.5625C124.365 40.5625 123.833 40.3958 123.516 40.0625C123.198 39.7292 123.039 39.1719 123.039 38.3906V33.4922H121.828V32.375H123.039V30.4141ZM127.43 40.5V32.375H128.711V33.7031H128.742C128.878 33.25 129.12 32.8932 129.469 32.6328C129.823 32.3672 130.237 32.2344 130.711 32.2344C130.82 32.2344 131.003 32.2526 131.258 32.2891V33.6094C131.112 33.5573 130.87 33.5312 130.531 33.5312C130.005 33.5312 129.583 33.7057 129.266 34.0547C128.948 34.4036 128.789 34.8646 128.789 35.4375V40.5H127.43ZM133.039 43.5391C132.799 43.5391 132.604 43.5234 132.453 43.4922V42.3516C132.578 42.3776 132.755 42.3906 132.984 42.3906C133.365 42.3906 133.669 42.2891 133.898 42.0859C134.128 41.888 134.32 41.5521 134.477 41.0781L134.664 40.5078L131.664 32.375H133.117L135.367 39.1406H135.391L137.641 32.375H139.07L135.875 41.0703C135.526 42.0182 135.148 42.6667 134.742 43.0156C134.341 43.3646 133.773 43.5391 133.039 43.5391Z" fill="white"/>
<defs>
<clipPath id="clip0_303_457">
<rect width="33" height="33" fill="white" transform="translate(0 12)"/>
</clipPath>
</defs>
</svg>
