<svg width="34" height="33" viewBox="0 0 34 33" fill="none" xmlns="http://www.w3.org/2000/svg">
<path d="M19.7457 30.1705C19.765 23.1966 17.7992 19.4455 17 19.4455C16.2007 19.4455 14.2543 23.1966 14.2543 30.1576C14.2543 30.7634 14.0029 31.3306 13.5582 31.7302C12.8298 32.3812 11.6826 32.465 10.864 31.9107C7.09996 29.3648 3.8902 24.6791 2.29176 19.3875C0.590197 13.7543 0.906017 8.23063 3.14254 4.62126C4.44449 2.52008 6.30719 1.20524 8.53082 0.824967C10.3162 0.522037 12.2304 0.837858 14.1382 1.76598C15.9043 2.62321 18.0957 2.62321 19.8681 1.76598C21.7695 0.837858 23.6902 0.515592 25.4691 0.824967C27.6927 1.20524 29.5554 2.52008 30.8574 4.62126C33.0939 8.23708 33.4097 13.7543 31.7082 19.3875C30.1097 24.6791 26.9064 29.3713 23.1359 31.9107C21.9435 32.7164 19.7392 32.4199 19.7457 30.1705ZM8.97555 3.41598C7.49957 3.69958 6.28785 4.53747 5.38551 6.007C3.56149 8.93962 3.34879 13.78 4.81188 18.6269C6.13961 23.0162 8.65973 26.9091 11.6375 29.223C11.7986 23.0677 13.4873 16.8158 17 16.8158C20.5127 16.8158 22.2078 23.0806 22.3625 29.223C25.3402 26.9091 27.8603 23.0162 29.188 18.6269C30.6511 13.78 30.4384 8.93962 28.6209 6.007C27.7121 4.54391 26.5068 3.6738 25.0308 3.41598C23.7869 3.20329 22.4205 3.44821 21.0154 4.13141C18.5339 5.33024 15.4724 5.33024 12.991 4.13141C11.9082 3.60934 10.0004 3.21618 8.97555 3.41598Z" fill="white"/>
</svg>
