<svg width="15" height="16" viewBox="0 0 15 16" fill="none" xmlns="http://www.w3.org/2000/svg">
<path d="M2 3C1.73478 3 1.48043 3.10536 1.29289 3.29289C1.10536 3.48043 1 3.73478 1 4V13.5C1 13.7652 1.10536 14.0196 1.29289 14.2071C1.48043 14.3946 1.73478 14.5 2 14.5H13C13.2652 14.5 13.5196 14.3946 13.7071 14.2071C13.8946 14.0196 14 13.7652 14 13.5V4C14 3.73478 13.8946 3.48043 13.7071 3.29289C13.5196 3.10536 13.2652 3 13 3H11" stroke="white" stroke-width="1.5" stroke-linecap="round" stroke-linejoin="round"/>
<path d="M4 1.5V4.5" stroke="white" stroke-width="1.5" stroke-linecap="round" stroke-linejoin="round"/>
<path d="M11 1.5V4.5" stroke="white" stroke-width="1.5" stroke-linecap="round" stroke-linejoin="round"/>
<path d="M4 3H9" stroke="white" stroke-width="1.5" stroke-linecap="round" stroke-linejoin="round"/>
<path d="M10 9H5" stroke="white" stroke-width="1.5" stroke-linecap="round" stroke-linejoin="round"/>
<path d="M7.5 6.5V11.5" stroke="white" stroke-width="1.5" stroke-linecap="round" stroke-linejoin="round"/>
</svg>
