<svg width="20" height="20" viewBox="0 0 20 20" fill="none" xmlns="http://www.w3.org/2000/svg">
<g clip-path="url(#clip0_222_702)">
<path d="M7.14284 9.28568C9.11528 9.28568 10.7143 7.68669 10.7143 5.71425C10.7143 3.74181 9.11528 2.14282 7.14284 2.14282C5.1704 2.14282 3.57141 3.74181 3.57141 5.71425C3.57141 7.68669 5.1704 9.28568 7.14284 9.28568Z" stroke="black" stroke-width="2" stroke-linecap="round" stroke-linejoin="round"/>
<path d="M0.714233 19.2857H7.1428H13.5714V18.5113C13.56 17.4225 13.2728 16.3542 12.7367 15.4065C12.2006 14.4586 11.4329 13.6622 10.5056 13.0915C9.57816 12.5208 8.52125 12.1944 7.43355 12.1429C7.33658 12.1383 7.23963 12.1359 7.1428 12.1357C7.04598 12.1359 6.94903 12.1383 6.85206 12.1429C5.76436 12.1944 4.70745 12.5208 3.78005 13.0915C2.85266 13.6622 2.08505 14.4586 1.5489 15.4065C1.01277 16.3542 0.725606 17.4225 0.714233 18.5113V19.2857Z" stroke="black" stroke-width="2" stroke-linecap="round" stroke-linejoin="round"/>
<path d="M12.8571 9.28568C14.8295 9.28568 16.4285 7.68669 16.4285 5.71425C16.4285 3.74181 14.8295 2.14282 12.8571 2.14282" stroke="black" stroke-width="2" stroke-linecap="round" stroke-linejoin="round"/>
<path d="M16.4285 19.2859H19.2856V18.5113C19.2742 17.4225 18.9871 16.3542 18.4509 15.4065C17.9148 14.4586 17.1472 13.6622 16.2198 13.0915C15.6204 12.7226 14.9666 12.4558 14.2856 12.2993" stroke="black" stroke-width="2" stroke-linecap="round" stroke-linejoin="round"/>
</g>
<defs>
<clipPath id="clip0_222_702">
<rect width="20" height="20" fill="white"/>
</clipPath>
</defs>
</svg>
