<svg id="Layer_1" data-name="Layer 1" xmlns="http://www.w3.org/2000/svg" viewBox="0 0 400 400"><defs><style>.cls-1{fill:none;stroke:#000;stroke-linecap:round;stroke-linejoin:round;stroke-width:3px;}</style></defs><polygon class="cls-1" points="289.4 57.26 289.4 196.32 289.38 196.32 245.29 162.03 245.29 91.57 289.4 57.26"/><polygon class="cls-1" points="289.38 196.32 110.62 196.32 154.71 162.03 245.29 162.03 289.38 196.32"/><polygon class="cls-1" points="154.71 91.57 154.71 162.03 110.62 196.32 110.6 196.32 110.6 57.26 154.71 91.57"/><polygon class="cls-1" points="289.4 57.26 245.29 91.57 154.71 91.57 110.6 57.26 289.4 57.26"/><rect class="cls-1" x="154.71" y="91.57" width="90.59" height="70.46"/><line class="cls-1" x1="110.62" y1="196.32" x2="110.6" y2="196.34"/><line class="cls-1" x1="289.4" y1="196.34" x2="289.38" y2="196.32"/><polygon class="cls-1" points="223.64 20.54 176.36 20.54 110.6 57.26 289.4 57.26 223.64 20.54"/><polygon class="cls-1" points="110.6 352.29 110.6 213.23 110.62 213.23 154.71 247.52 154.71 317.98 110.6 352.29"/><polygon class="cls-1" points="110.62 213.23 289.38 213.23 245.29 247.52 154.71 247.52 110.62 213.23"/><polygon class="cls-1" points="245.29 317.98 245.29 247.52 289.38 213.23 289.4 213.23 289.4 352.29 245.29 317.98"/><polygon class="cls-1" points="110.6 352.29 154.71 317.98 245.29 317.98 289.4 352.29 110.6 352.29"/><rect class="cls-1" x="154.71" y="247.52" width="90.59" height="70.46"/><line class="cls-1" x1="289.38" y1="213.23" x2="289.4" y2="213.21"/><line class="cls-1" x1="110.6" y1="213.21" x2="110.62" y2="213.23"/><polygon class="cls-1" points="176.36 389.01 223.64 389.01 289.4 352.29 110.6 352.29 176.36 389.01"/></svg>