<svg id="Layer_1" data-name="Layer 1" xmlns="http://www.w3.org/2000/svg" viewBox="0 0 400 400"><defs><style>.cls-1{fill:none;stroke:#000;stroke-linecap:round;stroke-linejoin:round;stroke-width:4px;}</style></defs><path class="cls-1" d="M195.69,104.84v-3.67c0-1.23-1.49-2,5.92-9.65,5-5.19,27-23.69,44.42-17.77,13.26,4.49,23.7,30.8,23.7,42.94,0,20.73-20.73,32.58-23.7,47.39s5.93,32.22-13.32,72.38-34.06,75.7-48.87,75.7,17.77-85.89,5.92-85.89-26.65,50.35-23.69,68.12,3,26.66-3,26.66-29.62-17.77-32.58-50.35,20.73-59.24,20.73-80-21-32.1-21-70.84c0-16.7,10.12-29.61,23.95-34.3,18.26-6.19,41.47.66,41.47,19.22"/></svg>