<svg id="Layer_1" data-name="Layer 1" xmlns="http://www.w3.org/2000/svg" viewBox="0 0 400 400"><defs><style>.cls-1{fill:none;stroke:#000;stroke-miterlimit:10;stroke-width:4px;}</style></defs><path class="cls-1" d="M258.53,86.28a21,21,0,0,1,7.2,24.17c-6.5,17.68-19.4,54.74-19.4,70.49,0,21.06-6,60.16-6,82.21s-34.09,62.16-41.11,61.16-7-22.06-2-37.09,11-68.7-3.54-83-12.5,36.86-22.53,55.91-2,59.15-8,61.15-23.06-11-20.05-44.11,13-40.1,13-86.22S134,132.82,133,119.78s9-39.1,34.09-39.1,31.08,10,31.08,29.08c0-27.07,16-34.09,32.08-34.09C239.26,75.67,250.42,80.38,258.53,86.28Z"/></svg>