<svg id="Layer_1" data-name="Layer 1" xmlns="http://www.w3.org/2000/svg" viewBox="0 0 400 400"><defs><style>.cls-1{fill:none;stroke:#000;stroke-miterlimit:10;stroke-width:4px;}</style></defs><path class="cls-1" d="M176.9,170.49a8.79,8.79,0,0,0-1.06-2.84c-3.45-5.91-17.23-31-17.23-53.71,0-19.06,21-34.36,32.16-41.17a17.36,17.36,0,0,1,17.16-.48c13.95,7.38,31.68,24.74,31.68,28.65,0,5,4,28,0,38S219.5,156.3,219.5,170.62s-10.89,159-21.89,159.12C176.87,329.94,184.42,212.88,176.9,170.49Z"/><path class="cls-1" d="M180.61,100.94s5,2,14,2c15,0,10,4,16,4,5,0,8-5,8-5"/></svg>