<svg id="Layer_1" data-name="Layer 1" xmlns="http://www.w3.org/2000/svg" viewBox="0 0 400 400"><defs><style>.cls-1{fill:none;stroke:#000;stroke-linecap:round;stroke-linejoin:round;stroke-width:4px;}</style></defs><path class="cls-1" d="M187.57,339.7a2.87,2.87,0,0,0,5.08,2.1c8.39-10.28,22.2-31.73,22.2-61.66,0-43,3-91,3-111s23.5-50.5,23.5-83.5c-9-21-30.5-28.5-41.5-28.5-10.52,0-30.64,16.92-40.3,40.84a12.13,12.13,0,0,0-.69,6.79c4.34,22.8,22,50.86,22,60.37C180.85,174.42,191.6,295.15,187.57,339.7Z"/><path class="cls-1" d="M217.35,94.64s-4,2-4,6,2,11.8,0,18.9"/><path class="cls-1" d="M188.35,92.64s-5,5-6,11,1.16,0-5.42-5.5,8.42,6.5,7.42,18.5"/></svg>