<svg id="Layer_1" data-name="Layer 1" xmlns="http://www.w3.org/2000/svg" viewBox="0 0 400 400"><defs><style>.cls-1{fill:none;stroke:#000;stroke-linecap:round;stroke-linejoin:round;stroke-width:4px;}</style></defs><path class="cls-1" d="M206.11,104.86v-15a27.06,27.06,0,0,0-11-22c-11.34-8.21-26.92-10.68-37.54-8.55-15.16,3-31.17,18.19-31.17,40.93,0,37.9,28.14,66.7,28.14,97,0,13.54,0,46.39,6.11,74.71a75,75,0,0,0,8.71,22.22c14.36,24.39,31.49,40.06,36.72,40.35,12.13.67,0-34.2-9.1-61.49s-3-51.54,3-51.54,7,20.13,12.12,34.87c2.77,8,10.05,17.66,12.72,27.61.68,2.55,8.51,42.67,17.49,42.12,9.47-.58,18.5-37.35,15.27-71.25-6.06-63.67-9.1-69.73-3-91s18.95-18.95,18.95-52.3c0-16.2-15.9-27.61-32.28-31.85C209.14,71.51,206.11,90.82,206.11,104.86Z"/></svg>