<svg id="Layer_1" data-name="Layer 1" xmlns="http://www.w3.org/2000/svg" viewBox="0 0 400 400"><defs><style>.cls-1{fill:none;stroke:#000;stroke-linecap:round;stroke-linejoin:round;stroke-width:4px;}</style></defs><path class="cls-1" d="M195.29,42.31c-7.37,0-36,25.34-39.45,37.89-4.77,17.22,17.09,50.15,19.79,67.82,5.48,36-5.63,114.37,2.82,149.78,3.84,16.06,14.46,42,27.05,57.84a4.21,4.21,0,0,0,7.51-2.56c.12-11.05-8.25-47.64-6.14-62.38,1-11.58,9.72-46.2,10.52-57.89,2.08-30.26.61-63.63,3.45-74.16,2.93-10.86,24-25.81,24-39.94,0-8.25-.8-20.5-4.28-28C233.92,76.49,202.66,42.31,195.29,42.31Z"/></svg>