<svg id="Layer_1" data-name="Layer 1" xmlns="http://www.w3.org/2000/svg" viewBox="0 0 400 400"><defs><style>.cls-1{fill:none;stroke:#000;stroke-linecap:round;stroke-linejoin:round;stroke-width:4px;}</style></defs><path class="cls-1" d="M204.65,108.68V99.56c-4.44-6.32-19.7-13.06-28.74-16.62a10.85,10.85,0,0,0-7.47-.22c-9.68,3.28-23.56,13.07-27.79,20-3.16,5.16-3.7,18-3,24,1.75,14.85,18.33,41.29,21,56,3.66,20.17-4.57,61.95,3,81,6.73,16.93,40,57,47,54,5.4-2.31,1-17.69,0-23.48-1.77-10.57-12.5-29.9-14-40.52-.85-6-3.07-17.06-2.46-26.05a4.33,4.33,0,0,1,8.38-1.18c5.11,14,8,20.86,16.08,35.23,13,23,10,32.28,13,41,1.12,3.26,4.57,10.79,8,11,4,.26,11.31-15.34,13-19,6-13,2.45-27.23,2-38-.68-16.42-8-46.56-8-63,0-43,22.89-62.48,17-83-2.42-8.43-15.07-20.5-25-25.22a12.42,12.42,0,0,0-9.35-.54c-8.52,2.93-18.78,9-22.69,14.76Z"/></svg>