<svg id="Layer_1" data-name="Layer 1" xmlns="http://www.w3.org/2000/svg" viewBox="0 0 400 400"><defs><style>.cls-1{fill:none;stroke:#000;stroke-miterlimit:10;stroke-width:4px;}</style></defs><path class="cls-1" d="M202.54,326.5c-22,0-26-163-26-163s-20-17.3-21.87-49.29a13.15,13.15,0,0,1,2.42-8.42c6.57-9.2,24.83-32.29,42.45-32.29,22,0,44,21.08,45,28,4,26.21-7.34,29-21,61C210.52,193,222.54,326.5,202.54,326.5Z"/><path class="cls-1" d="M224.82,98.55s-5-5.1-11.67-5.1-8.34,5.1-14.17,5.1-4.17-4.37-11.67-4.37-9.77,4.37-9.77,4.37"/></svg>