<svg id="Layer_1" data-name="Layer 1" xmlns="http://www.w3.org/2000/svg" viewBox="0 0 400 400"><defs><style>.cls-1{fill:none;stroke:#000;stroke-linecap:round;stroke-linejoin:round;stroke-width:4px;}</style></defs><path class="cls-1" d="M147.55,98.23s-2-28.78,22.83-28.78,36.72,3,36.72,26.8c0,0-5.95-26.8,28.78-26.8,48.73,0,50.62,40.7,37.22,65.72-5.86,11-13.4,28-13.4,41.47,0,21.84,6.4,53.67-3,94.29-8.94,38.71-25.81,72.26-34.28,72.26-13.53,0-8.13-21.42-6.42-45.46,1.16-16.22,6.95-82.38-5-82.38-4.63,0-2.66,12.22-11.91,31.76-6.6,13.95-17.86,29.78-17.86,47.64,0,5.4-1.18,29.95-2.25,40.34A7.15,7.15,0,0,1,166.5,339c-8.42-9.81-17-26.38-19.42-42.64-6.06-40,7.29-82.65,4.44-96.89-4-19.85-31.76-43.67-31.76-93.29,0-21.84,11.91-33.75,31.76-25.81"/></svg>