<svg id="Layer_1" data-name="Layer 1" xmlns="http://www.w3.org/2000/svg" viewBox="0 0 400 400"><defs><style>.cls-1{fill:none;stroke:#000;stroke-linecap:round;stroke-linejoin:round;stroke-width:4px;}</style></defs><path class="cls-1" d="M198.48,112v-5A21.48,21.48,0,0,1,212.64,86.8c3.85-1.39,21.21-6.39,33.84-.8,13.66,6,20,17,21,30,1,13.15-18.51,34.28-22,47-3.12,11.35.43,36.74-3,48-7.28,23.95-44,88-56,81-16.64-9.71,21.73-85.56,5-76-7,4-17.73,23.81-19,33-1.83,13.27,2.13,32.08-4.58,45.17a4.36,4.36,0,0,1-6.32,1.62c-14.23-9.47-20.48-30.34-21.1-45.79-.69-17.46,16.49-48.53,16-66-.48-17-24-30-24-63,0-12,6-32,28-34,17.86-1.62,27.94,2.6,33.16,6.28a11.43,11.43,0,0,1,4.84,9.36Z"/></svg>